<svg width="129" height="130" viewBox="0 0 129 130" fill="none" xmlns="http://www.w3.org/2000/svg">
    <g id="clockwise">
        <path d="M64.4924 110.339C39.283 110.339 18.7725 89.8284 18.7725 64.619C18.7725 39.4096 39.283 18.899 64.4924 18.899C89.7019 18.899 110.212 39.4096 110.212 64.619C110.212 89.8284 89.7019 110.339 64.4924 110.339ZM64.4924 19.6968C39.7218 19.6968 19.5702 39.8483 19.5702 64.619C19.5702 89.3896 39.7218 109.541 64.4924 109.541C89.2631 109.541 109.415 89.3896 109.415 64.619C109.415 39.8483 89.2631 19.6968 64.4924 19.6968Z"
              fill="url(#paint7_linear_115_21)"/>
        <path d="M30.7309 99.0426C26.8618 95.2453 23.6866 90.8735 21.2854 86.039C17.9587 79.3458 16.2754 72.142 16.2754 64.619H19.4665C19.4665 71.6473 21.0381 78.3725 24.1414 84.619C26.3831 89.1344 29.3508 93.2189 32.9647 96.769L30.7309 99.0426Z"
              fill="url(#paint8_linear_115_21)"/>
        <path d="M64.4922 112.836V109.645C68.5688 109.645 72.6055 109.102 76.4986 108.025C83.1679 106.183 89.4304 102.744 94.6079 98.0933L96.7459 100.463C91.2014 105.449 84.5002 109.126 77.3522 111.105C73.1799 112.254 68.856 112.836 64.4922 112.836Z"
              fill="url(#paint9_linear_115_21)"/>
        <path d="M112.709 64.619H109.518C109.518 62.2337 109.335 59.8483 108.96 57.5188C108.784 56.386 108.553 55.2452 108.29 54.1363L111.393 53.3944C111.68 54.5831 111.919 55.8037 112.111 57.0163C112.51 59.5133 112.709 62.0741 112.709 64.619Z"
              fill="url(#paint10_linear_115_21)"/>
        <path d="M97.1449 33.6098C95.0946 31.4479 92.821 29.4854 90.3878 27.7782C84.9311 23.9329 78.8441 21.404 72.2944 20.2632L72.8449 17.12C79.8652 18.3486 86.383 21.053 92.2306 25.1695C94.8313 27.0043 97.2645 29.1024 99.4584 31.416L97.1449 33.6098Z"
              fill="url(#paint11_linear_115_21)"/>
        <path d="M64.4927 107.499C40.8469 107.499 21.6128 88.2649 21.6128 64.6191C21.6128 40.9733 40.8469 21.7391 64.4927 21.7391C88.1385 21.7391 107.373 40.9733 107.373 64.6191C107.373 88.2649 88.1385 107.499 64.4927 107.499ZM64.4927 21.9386C40.9586 21.9386 21.8122 41.085 21.8122 64.6191C21.8122 88.1532 40.9586 107.3 64.4927 107.3C88.0268 107.3 107.173 88.1532 107.173 64.6191C107.173 41.085 88.0268 21.9386 64.4927 21.9386Z"
              fill="url(#paint12_linear_115_21)"/>
        <path class="slower"
              d="M64.4929 95.5965C47.4127 95.5965 33.5156 81.6994 33.5156 64.6192H35.1112C35.1112 80.8218 48.2903 94.0009 64.4929 94.0009V95.5965Z"
              fill="url(#paint14_linear_115_21)"/>
        <path d="M64.5964 101.005H64.397V107.395H64.5964V101.005Z" fill="url(#paint0_linear_115_21)"/>
        <path d="M68.1224 107.244L67.564 100.878L67.7634 100.862L68.3218 107.228L68.1224 107.244Z"
              fill="url(#paint1_linear_115_21)"/>
        <path d="M71.8242 106.765L70.7153 100.471L70.9068 100.439L72.0157 106.733L71.8242 106.765Z"
              fill="url(#paint2_linear_115_21)"/>
        <path d="M75.4699 105.967L73.8105 99.7927L74.01 99.7449L75.6614 105.92L75.4699 105.967Z"
              fill="url(#paint3_linear_115_21)"/>
        <path d="M64.5964 21.8351H64.397V28.2252H64.5964V21.8351Z" fill="url(#paint17_linear_115_21)"/>
        <path d="M61.222 28.3767L60.6636 22.0105L60.863 21.9946L61.4214 28.3607L61.222 28.3767Z"
              fill="url(#paint18_linear_115_21)"/>
        <path d="M58.0788 28.7994L56.9619 22.5051L57.1614 22.4731L58.2703 28.7675L58.0788 28.7994Z"
              fill="url(#paint19_linear_115_21)"/>
        <path d="M54.9756 29.4935L53.3242 23.3188L53.5157 23.2709L55.175 29.4456L54.9756 29.4935Z"
              fill="url(#paint20_linear_115_21)"/>
        <path d="M51.952 30.4589L49.7661 24.4517L49.9576 24.3799L52.1435 30.3871L51.952 30.4589Z"
              fill="url(#paint21_linear_115_21)"/>
        <path d="M79.0282 104.85L76.8423 98.8513L77.0337 98.7795L79.2196 104.787L79.0282 104.85Z"
              fill="url(#paint22_linear_115_21)"/>
        <path d="M46.505 25.8047L46.3242 25.889L49.0253 31.6804L49.2061 31.5961L46.505 25.8047Z"
              fill="url(#paint23_linear_115_21)"/>
        <path d="M79.9742 97.5506L79.7935 97.6349L82.4946 103.426L82.6753 103.342L79.9742 97.5506Z"
              fill="url(#paint24_linear_115_21)"/>
        <path d="M43.1849 27.5106L43.0122 27.6103L46.2073 33.1441L46.38 33.0444L43.1849 27.5106Z"
              fill="url(#paint25_linear_115_21)"/>
        <path d="M82.7689 96.0806L82.5962 96.1803L85.7912 101.714L85.964 101.614L82.7689 96.0806Z"
              fill="url(#paint26_linear_115_21)"/>
        <path d="M40.0438 29.5271L39.8804 29.6415L43.5457 34.8763L43.7091 34.7619L40.0438 29.5271Z"
              fill="url(#paint27_linear_115_21)"/>
        <path d="M88.9519 99.7209L85.2822 94.4876L85.4418 94.3679L89.1115 99.6092L88.9519 99.7209Z"
              fill="url(#paint28_linear_115_21)"/>
        <path d="M41.0226 36.8091L36.9141 31.9108L37.0736 31.7832L41.1821 36.6815L41.0226 36.8091Z"
              fill="url(#paint29_linear_115_21)"/>
        <path d="M91.9122 97.4554L87.8037 92.5571L87.9633 92.4295L92.0718 97.3278L91.9122 97.4554Z"
              fill="url(#paint30_linear_115_21)"/>
        <path d="M28.2343 61.5477L21.8682 60.9893L21.8841 60.7899L28.2503 61.3483L28.2343 61.5477Z"
              fill="url(#paint31_linear_115_21)"/>
        <path d="M107.102 68.4483L100.735 67.8899L100.751 67.6904L107.117 68.2489L107.102 68.4483Z"
              fill="url(#paint32_linear_115_21)"/>
        <path d="M28.0986 64.5156H21.7085V64.715H28.0986V64.5156Z" fill="url(#paint33_linear_115_21)"/>
        <path d="M107.269 64.5156H100.879V64.7151H107.269V64.5156Z" fill="url(#paint34_linear_115_21)"/>
        <path d="M64.4926 99.4735C45.2744 99.4735 29.6382 83.8373 29.6382 64.6191C29.6382 45.4009 45.2744 29.7647 64.4926 29.7647V30.1636C45.4898 30.1636 30.0371 45.6243 30.0371 64.6191C30.0371 83.6219 45.4978 99.0747 64.4926 99.0747C83.4954 99.0747 98.9481 83.6139 98.9481 64.6191H99.347C99.347 83.8373 83.7108 99.4735 64.4926 99.4735Z"
              fill="url(#paint35_linear_115_21)"/>
        <path d="M64.4926 97.4872V97.2878C82.5062 97.2878 97.1612 82.6328 97.1612 64.6193C97.1612 46.6057 82.5062 31.9507 64.4926 31.9507C46.4791 31.9507 31.8161 46.6057 31.8161 64.6193H31.6167C31.6167 46.494 46.3594 31.7513 64.4926 31.7513C82.6179 31.7513 97.3606 46.494 97.3606 64.6193C97.3606 82.7445 82.6179 97.4872 64.4926 97.4872Z"
              fill="url(#paint13_linear_115_21)"/>
    </g>
    <g class="bubbles">
        <path class="counter-clockwise" opacity="0.1"
              d="M65.0564 129.23C65.0405 129.23 65.0166 129.238 64.9926 129.238C64.5538 129.238 64.1949 128.879 64.1949 128.44C64.1949 127.994 64.5538 127.643 64.9926 127.643C65.0166 127.643 65.0325 127.643 65.0485 127.643C65.0724 127.643 65.0963 127.643 65.1203 127.643C65.567 127.635 65.918 127.994 65.926 128.432C65.926 128.879 65.567 129.23 65.1283 129.238C65.1043 129.238 65.0724 129.23 65.0564 129.23ZM56.8953 128.728C56.4565 128.672 56.1454 128.273 56.2012 127.842C56.2571 127.403 56.656 127.092 57.0947 127.148C57.5335 127.204 57.8367 127.603 57.7808 128.042C57.733 128.44 57.3899 128.736 56.991 128.736C56.9591 128.736 56.9272 128.736 56.8953 128.728ZM72.3161 128.026C72.2603 127.587 72.5714 127.188 73.0102 127.132C73.4489 127.076 73.8478 127.387 73.9037 127.826C73.9595 128.257 73.6484 128.656 73.2096 128.712C73.1777 128.72 73.1458 128.72 73.1139 128.72C72.715 128.72 72.3799 128.424 72.3161 128.026ZM48.9336 127.212C48.5028 127.1 48.2475 126.669 48.3592 126.247C48.4709 125.816 48.9017 125.56 49.3325 125.672C49.7553 125.776 50.0186 126.215 49.9069 126.637C49.8111 126.996 49.4841 127.244 49.133 127.244C49.0692 127.244 48.9894 127.236 48.9336 127.212ZM80.214 126.613C80.1023 126.183 80.3576 125.744 80.7884 125.64C81.2112 125.529 81.642 125.784 81.7537 126.215C81.8654 126.637 81.6101 127.076 81.1873 127.18C81.1155 127.204 81.0517 127.212 80.9878 127.212C80.6288 127.212 80.2938 126.972 80.214 126.613ZM41.2032 124.707C40.7964 124.539 40.5969 124.077 40.7565 123.67C40.924 123.255 41.3867 123.055 41.7936 123.223C42.2084 123.383 42.4079 123.845 42.2483 124.252C42.1207 124.571 41.8175 124.763 41.4984 124.763C41.4027 124.763 41.3069 124.739 41.2032 124.707ZM87.8566 124.212C87.6891 123.797 87.8885 123.335 88.3034 123.175C88.7102 123.008 89.1729 123.207 89.3405 123.614C89.5 124.029 89.3006 124.491 88.8937 124.659C88.798 124.691 88.6943 124.715 88.5985 124.715C88.2714 124.715 87.9763 124.523 87.8566 124.212ZM33.8797 121.237C33.4888 121.021 33.3532 120.542 33.5686 120.152C33.776 119.769 34.2627 119.625 34.6456 119.84C35.0365 120.056 35.1721 120.535 34.9647 120.925C34.8131 121.189 34.5419 121.34 34.2627 121.34C34.1271 121.34 33.9914 121.308 33.8797 121.237ZM95.1243 120.87C94.9089 120.487 95.0525 120 95.4354 119.785C95.8183 119.569 96.3049 119.713 96.5203 120.096C96.7357 120.479 96.5921 120.965 96.2092 121.181C96.0816 121.245 95.9539 121.284 95.8183 121.284C95.5471 121.284 95.2758 121.133 95.1243 120.87ZM27.0349 116.881C26.6759 116.617 26.5961 116.123 26.8594 115.764C27.1147 115.413 27.6173 115.333 27.9763 115.588V115.596C28.3273 115.852 28.4071 116.346 28.1438 116.705C27.9922 116.921 27.7449 117.032 27.5056 117.032C27.3381 117.032 27.1785 116.984 27.0349 116.881ZM101.929 116.641C101.674 116.282 101.746 115.788 102.105 115.525C102.456 115.269 102.958 115.341 103.222 115.7C103.477 116.051 103.405 116.554 103.046 116.817C102.902 116.921 102.743 116.968 102.575 116.968C102.328 116.968 102.089 116.857 101.929 116.641ZM20.7884 111.703C20.4693 111.4 20.4533 110.897 20.7485 110.578C21.0517 110.251 21.5543 110.235 21.8813 110.539C22.2005 110.842 22.2164 111.344 21.9133 111.671C21.7617 111.839 21.5463 111.919 21.3309 111.919C21.1314 111.919 20.932 111.847 20.7884 111.703ZM108.152 111.6C107.849 111.272 107.857 110.77 108.184 110.467C108.503 110.172 109.005 110.18 109.309 110.507C109.612 110.826 109.596 111.328 109.277 111.631C109.125 111.775 108.926 111.847 108.726 111.847C108.519 111.847 108.311 111.767 108.152 111.6ZM15.2359 105.792C14.9567 105.457 14.9966 104.954 15.3397 104.675C15.6747 104.396 16.1773 104.436 16.4565 104.779C16.7437 105.114 16.6959 105.616 16.3608 105.896C16.2092 106.023 16.0257 106.087 15.8502 106.087C15.6109 106.087 15.3795 105.983 15.2359 105.792ZM113.704 105.816C113.361 105.536 113.313 105.034 113.601 104.691C113.88 104.356 114.382 104.308 114.725 104.587C115.06 104.866 115.108 105.369 114.829 105.712C114.67 105.903 114.446 105.999 114.215 105.999C114.031 105.999 113.856 105.943 113.704 105.816ZM10.4573 99.2421C10.226 98.8672 10.3297 98.3805 10.7046 98.1412C11.0716 97.9019 11.5662 98.0136 11.8056 98.3885C12.0369 98.7555 11.9332 99.2501 11.5582 99.4894C11.4226 99.5692 11.279 99.6091 11.1275 99.6091C10.8562 99.6091 10.6089 99.4815 10.4573 99.2421ZM118.491 99.3937C118.124 99.1544 118.012 98.6598 118.252 98.2928C118.483 97.9178 118.977 97.8062 119.352 98.0455C119.719 98.2768 119.831 98.7715 119.592 99.1464C119.44 99.3857 119.185 99.5134 118.922 99.5134C118.778 99.5134 118.626 99.4735 118.491 99.3937ZM6.5403 92.142C6.34883 91.7431 6.51636 91.2724 6.91525 91.081C7.31413 90.8975 7.79279 91.065 7.98426 91.4639C8.16774 91.8628 8.00021 92.3414 7.60133 92.5249C7.48964 92.5808 7.37795 92.6047 7.25829 92.6047C6.96311 92.6047 6.66794 92.4372 6.5403 92.142ZM122.44 92.4212C122.041 92.2298 121.873 91.7511 122.065 91.3602H122.057C122.248 90.9613 122.719 90.7858 123.118 90.9773C123.517 91.1607 123.692 91.6394 123.501 92.0383C123.365 92.3255 123.078 92.493 122.783 92.493C122.671 92.493 122.543 92.4691 122.44 92.4212ZM3.5407 84.6111C3.40508 84.1883 3.63643 83.7415 4.05127 83.5979C4.47409 83.4623 4.92083 83.6937 5.05645 84.1085V84.1165C5.20005 84.5313 4.9687 84.986 4.54588 85.1217C4.4661 85.1456 4.38633 85.1616 4.29858 85.1616C3.96351 85.1616 3.64441 84.9462 3.5407 84.6111ZM125.487 85.002C125.064 84.8664 124.833 84.4116 124.969 83.9968C125.104 83.574 125.559 83.3506 125.974 83.4862C126.397 83.6219 126.628 84.0686 126.484 84.4914C126.484 84.4914 126.484 84.4914 126.492 84.4914C126.381 84.8265 126.07 85.0419 125.727 85.0419C125.639 85.0419 125.567 85.0259 125.487 85.002ZM1.51437 76.7531C1.42662 76.3143 1.71381 75.8995 2.14461 75.8197C2.58338 75.7319 2.99822 76.0191 3.07799 76.4499C3.16575 76.8887 2.87855 77.3036 2.44776 77.3833C2.39191 77.3913 2.34405 77.3993 2.29618 77.3993C1.92123 77.3993 1.58617 77.136 1.51437 76.7531ZM127.561 77.2637C127.131 77.1759 126.843 76.7611 126.931 76.3303C127.011 75.8915 127.426 75.6123 127.857 75.6921C128.295 75.7718 128.575 76.1947 128.495 76.6255C128.423 77.0084 128.088 77.2716 127.705 77.2716C127.657 77.2716 127.601 77.2716 127.561 77.2637ZM0.509186 68.7036C0.477275 68.2649 0.812337 67.8819 1.25111 67.858C1.68988 67.8261 2.07281 68.1612 2.09674 68.6079C2.12865 69.0467 1.79359 69.4216 1.35482 69.4535C1.33886 69.4535 1.32291 69.4535 1.29897 69.4535C0.884134 69.4535 0.525141 69.1265 0.509186 68.7036ZM128.654 69.3259C128.208 69.294 127.873 68.919 127.904 68.4803C127.928 68.0415 128.303 67.6985 128.742 67.7304C129.189 67.7543 129.524 68.1372 129.492 68.576C129.492 68.576 129.492 68.576 129.5 68.576C129.468 68.9988 129.117 69.3259 128.694 69.3259C128.678 69.3259 128.662 69.3259 128.654 69.3259ZM1.25111 61.444C0.812337 61.4121 0.477273 61.0371 0.501206 60.5983C0.525139 60.1516 0.908071 59.8245 1.34684 59.8484C1.78561 59.8724 2.12067 60.2553 2.09674 60.6941C2.06483 61.1169 1.71381 61.444 1.29897 61.444C1.28302 61.444 1.26706 61.444 1.25111 61.444ZM127.889 60.5664C127.865 60.1276 128.192 59.7447 128.638 59.7208C129.077 59.6889 129.452 60.0239 129.484 60.4627C129.508 60.9015 129.173 61.2844 128.734 61.3083C128.718 61.3163 128.702 61.3163 128.686 61.3163C128.263 61.3163 127.912 60.9892 127.889 60.5664ZM2.14461 53.4823C1.71381 53.3945 1.42662 52.9797 1.50639 52.5489C1.59415 52.1101 2.00898 51.8309 2.43978 51.9107C2.87057 51.9904 3.15777 52.4132 3.07799 52.844C3.00619 53.227 2.67113 53.4902 2.28821 53.4902C2.24034 53.4902 2.1845 53.4902 2.14461 53.4823ZM126.891 52.7164C126.812 52.2856 127.091 51.8708 127.53 51.783C127.96 51.7032 128.375 51.9825 128.455 52.4212C128.455 52.4212 128.455 52.4212 128.463 52.4212C128.543 52.852 128.255 53.2669 127.825 53.3546C127.777 53.3626 127.729 53.3706 127.673 53.3706C127.298 53.3706 126.963 53.0993 126.891 52.7164ZM4.03531 45.6881C3.62047 45.5525 3.38912 45.1057 3.52474 44.6829C3.66036 44.2681 4.10711 44.0367 4.52993 44.1723C4.94477 44.3079 5.17612 44.7547 5.0405 45.1775C4.92881 45.5126 4.61768 45.728 4.28262 45.728C4.20285 45.728 4.10711 45.712 4.03531 45.6881ZM124.905 45.0578C124.769 44.643 124.993 44.1963 125.415 44.0527C125.83 43.917 126.285 44.1484 126.421 44.5632C126.556 44.986 126.333 45.4328 125.91 45.5684C125.83 45.6003 125.743 45.6083 125.663 45.6083C125.336 45.6083 125.025 45.4009 124.905 45.0578ZM6.89929 38.205C6.50041 38.0136 6.3249 37.5349 6.51636 37.136C6.69985 36.7371 7.17851 36.5696 7.57739 36.7611C7.97628 36.9446 8.14381 37.4232 7.96033 37.8221C7.82471 38.1093 7.53751 38.2768 7.23436 38.2768C7.12267 38.2768 7.003 38.2529 6.89929 38.205ZM121.977 37.7104C121.786 37.3115 121.953 36.8408 122.352 36.6494C122.751 36.4659 123.23 36.6334 123.413 37.0323C123.605 37.4312 123.437 37.9019 123.038 38.0933C122.926 38.1492 122.807 38.1731 122.695 38.1731C122.408 38.1731 122.113 38.0056 121.977 37.7104ZM10.6727 31.1368C10.3058 30.8975 10.1941 30.4029 10.4334 30.0359C10.6648 29.661 11.1594 29.5493 11.5343 29.7886C11.9013 30.02 12.013 30.5146 11.7816 30.8895C11.63 31.1288 11.3668 31.2565 11.1035 31.2565C10.9599 31.2565 10.8083 31.2166 10.6727 31.1368ZM118.156 30.7938C117.916 30.4268 118.028 29.9322 118.395 29.6929C118.77 29.4615 119.265 29.5652 119.496 29.9402C119.735 30.3071 119.624 30.8018 119.257 31.0411C119.121 31.1288 118.969 31.1687 118.826 31.1687C118.555 31.1687 118.307 31.0331 118.156 30.7938ZM15.3157 24.5951C14.9727 24.3159 14.9248 23.8133 15.204 23.4703C15.4833 23.1352 15.9938 23.0874 16.3289 23.3666C16.6719 23.6458 16.7118 24.1484 16.4326 24.4914C16.273 24.6829 16.0497 24.7786 15.8183 24.7786C15.6428 24.7786 15.4593 24.7228 15.3157 24.5951ZM113.489 24.4117C113.21 24.0686 113.257 23.566 113.593 23.2868C113.936 23.0076 114.438 23.0475 114.717 23.3905C114.997 23.7336 114.949 24.2282 114.614 24.5154C114.462 24.635 114.287 24.6988 114.103 24.6988C113.864 24.6988 113.64 24.5951 113.489 24.4117ZM20.7166 18.6917C20.4214 18.3646 20.4374 17.862 20.7565 17.5588C21.0756 17.2557 21.5782 17.2716 21.8813 17.5987C22.1845 17.9178 22.1685 18.4204 21.8494 18.7236C21.6979 18.8672 21.4984 18.939 21.299 18.939C21.0916 18.939 20.8682 18.8512 20.7166 18.6917ZM108.056 18.6518C107.737 18.3486 107.721 17.846 108.024 17.519C108.319 17.1998 108.83 17.1839 109.149 17.487C109.468 17.7902 109.484 18.2928 109.189 18.6119C109.029 18.7794 108.814 18.8672 108.599 18.8672C108.415 18.8672 108.216 18.7954 108.056 18.6518ZM26.8115 13.4982C26.5563 13.1392 26.636 12.6446 26.987 12.3813C27.346 12.1261 27.8407 12.1979 28.1039 12.5568C28.3672 12.9158 28.2874 13.4105 27.9284 13.6737C27.7848 13.7774 27.6253 13.8253 27.4577 13.8253C27.2104 13.8253 26.9791 13.7136 26.8115 13.4982ZM101.969 13.6099C101.61 13.3466 101.53 12.852 101.794 12.493C102.049 12.134 102.551 12.0543 102.91 12.3175C103.261 12.5728 103.341 13.0754 103.078 13.4344C102.926 13.6498 102.679 13.7615 102.432 13.7615C102.272 13.7615 102.105 13.7136 101.969 13.6099ZM33.5207 9.11049C33.3054 8.71958 33.4489 8.23295 33.8319 8.02553C34.2148 7.81013 34.7014 7.95373 34.9168 8.33665C35.1322 8.71958 34.9886 9.20622 34.6057 9.42162C34.486 9.48544 34.3504 9.51736 34.2228 9.51736C33.9276 9.51736 33.6643 9.36577 33.5207 9.11049ZM95.2838 9.36578C94.9009 9.15038 94.7653 8.66375 94.9727 8.28082C95.1881 7.89789 95.6747 7.75429 96.0576 7.96969C96.4406 8.17711 96.5842 8.66375 96.3688 9.05465C96.2252 9.31791 95.9539 9.46151 95.6747 9.46151C95.5391 9.46151 95.4114 9.4296 95.2838 9.36578ZM40.7086 5.59235C40.5411 5.18549 40.7405 4.7148 41.1554 4.55525C41.1554 4.55525 41.1554 4.55525 41.1474 4.55525C41.5622 4.3957 42.0249 4.58716 42.1845 5.002C42.352 5.40886 42.1526 5.87157 41.7457 6.0391H41.7377C41.642 6.07898 41.5463 6.09493 41.4426 6.09493C41.1394 6.09493 40.8363 5.90348 40.7086 5.59235ZM88.1278 5.99123C87.721 5.83168 87.5136 5.36897 87.6811 4.95413C87.8407 4.54727 88.3034 4.34783 88.7182 4.50739C89.1251 4.67492 89.3245 5.13761 89.1649 5.54447C89.0373 5.8556 88.7421 6.04707 88.423 6.04707C88.3273 6.04707 88.2236 6.03112 88.1278 5.99123ZM48.2874 3.00758C48.1757 2.57679 48.439 2.14599 48.8618 2.03431C49.2926 1.92262 49.7234 2.18588 49.8351 2.6087C49.9468 3.03949 49.6835 3.47029 49.2607 3.58197C49.1968 3.59793 49.1251 3.60591 49.0612 3.60591C48.7102 3.60591 48.3831 3.36658 48.2874 3.00758ZM80.5969 3.55006C80.1741 3.43837 79.9188 3.00759 80.0225 2.57679C80.1342 2.15398 80.565 1.89869 80.9958 2.0024C81.4186 2.11409 81.6819 2.54488 81.5702 2.97568C81.4745 3.33467 81.1554 3.574 80.7964 3.574C80.7326 3.574 80.6608 3.56601 80.5969 3.55006ZM56.1454 1.40408C56.0896 0.965305 56.4007 0.566414 56.8395 0.51057C57.2782 0.454726 57.6691 0.765863 57.733 1.20463C57.7808 1.64341 57.4777 2.04229 57.0389 2.09813C57.007 2.09813 56.9671 2.09813 56.9352 2.09813C56.5283 2.09813 56.1933 1.80296 56.1454 1.40408ZM72.8187 2.08217C72.38 2.02633 72.0688 1.62745 72.1247 1.18868C72.1805 0.749905 72.5794 0.43878 73.0182 0.494623C73.4569 0.550467 73.7681 0.949346 73.7122 1.38812C73.6564 1.787 73.3133 2.08217 72.9224 2.08217C72.8985 2.08217 72.8506 2.08217 72.8187 2.08217ZM64.131 0.797766C64.131 0.358995 64.49 0 64.9288 0C65.3756 0 65.7266 0.358995 65.7266 0.797766C65.7266 1.23654 65.3756 1.59553 64.9368 1.59553C64.49 1.59553 64.131 1.23654 64.131 0.797766Z"
              fill="url(#paint0_linear_116_19)"/>
        <path class="clockwise" opacity="0.2"
              d="M64.195 122.274C64.195 121.827 64.554 121.476 64.9927 121.476C65.0167 121.476 65.0326 121.476 65.0486 121.476C65.0725 121.476 65.0964 121.476 65.1204 121.476C65.5591 121.476 65.9181 121.827 65.9181 122.266C65.9181 122.712 65.5671 123.063 65.1204 123.071C65.1204 123.071 65.1204 123.071 65.1284 123.071C65.1044 123.071 65.0805 123.063 65.0566 123.063C65.0406 123.063 65.0167 123.071 64.9927 123.071C64.546 123.071 64.195 122.712 64.195 122.274ZM56.8635 122.505C56.4247 122.441 56.1216 122.042 56.1854 121.604C56.2492 121.165 56.6481 120.862 57.0869 120.925C57.5256 120.989 57.8288 121.388 57.765 121.827C57.7091 122.226 57.3661 122.513 56.9752 122.513C56.9433 122.513 56.8954 122.513 56.8635 122.505ZM72.3481 121.811C72.2923 121.372 72.5954 120.965 73.0262 120.91C73.465 120.846 73.8719 121.149 73.9277 121.588C73.9915 122.018 73.6884 122.425 73.2576 122.489C73.2177 122.489 73.1778 122.497 73.1459 122.497C72.747 122.497 72.412 122.21 72.3481 121.811ZM48.8858 120.814C48.463 120.694 48.2157 120.247 48.3354 119.825C48.455 119.402 48.9018 119.154 49.3246 119.282C49.7474 119.402 49.9947 119.841 49.8671 120.263C49.7714 120.614 49.4522 120.846 49.1012 120.846C49.0374 120.846 48.9656 120.838 48.8858 120.814ZM80.2301 120.231C80.1024 119.809 80.3497 119.37 80.7725 119.242C81.1954 119.123 81.6341 119.37 81.7618 119.793C81.8814 120.215 81.6341 120.654 81.2193 120.774C81.2193 120.774 81.2193 120.774 81.2193 120.782C81.1395 120.798 81.0677 120.814 80.9959 120.814C80.6529 120.814 80.3338 120.582 80.2301 120.231ZM41.2273 118.014C40.8284 117.838 40.6449 117.367 40.8284 116.961C41.0119 116.562 41.4746 116.378 41.8814 116.562C42.2803 116.737 42.4638 117.208 42.2803 117.615C42.1527 117.91 41.8575 118.085 41.5544 118.085C41.4347 118.085 41.339 118.061 41.2273 118.014ZM87.8088 117.567C87.6333 117.16 87.8088 116.689 88.2157 116.514H88.2077C88.6146 116.33 89.0853 116.506 89.2688 116.913C89.4443 117.312 89.2688 117.79 88.8699 117.966C88.7582 118.014 88.6465 118.038 88.5428 118.038C88.2396 118.038 87.9445 117.862 87.8088 117.567ZM34.0314 114.176C33.6565 113.945 33.5448 113.45 33.7761 113.075C34.0075 112.708 34.5021 112.597 34.8771 112.828C35.252 113.06 35.3637 113.554 35.1244 113.929C34.9728 114.168 34.7175 114.296 34.4542 114.296C34.3106 114.296 34.1591 114.264 34.0314 114.176ZM94.9568 113.865C94.7175 113.49 94.8292 113.004 95.2041 112.764C95.5791 112.533 96.0737 112.645 96.3051 113.02C96.5364 113.387 96.4247 113.881 96.0577 114.113C95.9221 114.2 95.7785 114.24 95.627 114.24C95.3557 114.24 95.1084 114.105 94.9568 113.865ZM27.4419 109.382C27.0988 109.095 27.0589 108.592 27.3382 108.257C27.6254 107.914 28.128 107.874 28.463 108.153C28.7981 108.44 28.8459 108.943 28.5667 109.286C28.4072 109.47 28.1758 109.565 27.9524 109.565C27.7769 109.565 27.5935 109.501 27.4419 109.382ZM101.499 109.214C101.211 108.871 101.259 108.377 101.594 108.089C101.929 107.802 102.432 107.85 102.719 108.185C102.998 108.52 102.958 109.023 102.623 109.31C102.472 109.43 102.288 109.493 102.113 109.493C101.889 109.493 101.666 109.398 101.499 109.214ZM21.5863 103.718C21.2831 103.391 21.315 102.888 21.6421 102.593C21.9692 102.298 22.4718 102.322 22.767 102.649C23.0621 102.976 23.0382 103.478 22.7111 103.773C22.5595 103.909 22.3681 103.981 22.1766 103.981C21.9612 103.981 21.7299 103.893 21.5863 103.718ZM107.354 103.694C107.027 103.399 107.003 102.896 107.298 102.569C107.593 102.242 108.096 102.21 108.423 102.505C108.75 102.8 108.774 103.303 108.487 103.63C108.327 103.805 108.104 103.901 107.889 103.901C107.689 103.901 107.506 103.829 107.354 103.694ZM16.5603 97.3036C16.313 96.9367 16.4088 96.442 16.7757 96.1947C17.1347 95.9474 17.6294 96.0431 17.8767 96.4101C18.1319 96.7691 18.0282 97.2637 17.6692 97.511C17.5256 97.6068 17.3741 97.6546 17.2225 97.6546C16.9672 97.6546 16.7039 97.527 16.5603 97.3036ZM112.388 97.4233C112.029 97.176 111.925 96.6814 112.173 96.3144C112.42 95.9474 112.915 95.8517 113.282 96.099C113.648 96.3463 113.744 96.8409 113.497 97.2079C113.345 97.4392 113.09 97.5589 112.835 97.5589C112.675 97.5589 112.524 97.511 112.388 97.4233ZM12.4678 90.2514C12.2763 89.8604 12.4439 89.3818 12.8348 89.1824C13.2337 88.9909 13.7123 89.1584 13.9038 89.5493C14.1032 89.9482 13.9357 90.4269 13.5368 90.6183C13.4251 90.6742 13.3055 90.6981 13.1858 90.6981C12.8826 90.6981 12.6114 90.5386 12.4678 90.2514ZM116.497 90.5146C116.106 90.3152 115.938 89.8445 116.13 89.4456C116.321 89.0467 116.8 88.8872 117.199 89.0787C117.597 89.2701 117.757 89.7488 117.566 90.1477C117.43 90.4269 117.143 90.5944 116.848 90.5944C116.728 90.5944 116.616 90.5625 116.497 90.5146ZM9.39641 82.6965C9.26078 82.2817 9.49214 81.827 9.90698 81.6913C10.3298 81.5557 10.7765 81.7871 10.9122 82.2019H10.9201C11.0558 82.6247 10.8244 83.0715 10.4096 83.2151C10.3218 83.239 10.242 83.247 10.1623 83.247C9.8272 83.247 9.51607 83.0396 9.39641 82.6965ZM119.616 83.0954C119.201 82.9598 118.97 82.5051 119.105 82.0902C119.241 81.6674 119.688 81.444 120.11 81.5717C120.525 81.7073 120.757 82.162 120.621 82.5768C120.517 82.9199 120.198 83.1353 119.863 83.1353C119.783 83.1353 119.704 83.1193 119.616 83.0954ZM7.4339 74.7907C7.35412 74.3599 7.64132 73.945 8.08009 73.8652C8.51088 73.7934 8.92572 74.0806 9.0055 74.5114C9.0773 74.9502 8.79011 75.3651 8.35931 75.4369C8.31145 75.4448 8.26358 75.4528 8.21571 75.4528C7.83279 75.4528 7.49772 75.1816 7.4339 74.7907ZM121.65 75.3172C121.219 75.2374 120.924 74.8306 121.004 74.3918C121.084 73.961 121.491 73.6658 121.929 73.7456C122.36 73.8174 122.647 74.2322 122.576 74.671C122.512 75.0539 122.169 75.3331 121.786 75.3331C121.746 75.3331 121.706 75.3252 121.65 75.3172ZM6.57231 66.6854C6.55636 66.2466 6.8994 65.8716 7.34615 65.8637C7.78492 65.8477 8.15189 66.1907 8.16784 66.6295C8.1838 67.0683 7.84076 67.4353 7.40199 67.4592C7.38603 67.4592 7.37806 67.4592 7.37008 67.4592C6.95524 67.4592 6.59625 67.1161 6.57231 66.6854ZM122.583 67.3315C122.145 67.3156 121.794 66.9486 121.81 66.5098C121.826 66.0631 122.193 65.7201 122.639 65.736C123.078 65.752 123.421 66.1189 123.405 66.5577C123.389 66.9965 123.038 67.3315 122.607 67.3315C122.607 67.3315 122.599 67.3315 122.583 67.3315ZM7.56952 59.4177C7.13075 59.3698 6.81164 58.9789 6.85951 58.5401C6.8994 58.1014 7.29828 57.7823 7.73705 57.8301C8.16784 57.878 8.48695 58.2689 8.44706 58.7077C8.3992 59.1146 8.05616 59.4177 7.65727 59.4177C7.62536 59.4177 7.60143 59.4177 7.56952 59.4177ZM121.53 58.588C121.491 58.1493 121.802 57.7584 122.24 57.7105C122.679 57.6626 123.078 57.9817 123.118 58.4205C123.166 58.8513 122.855 59.2502 122.416 59.298C122.384 59.298 122.352 59.298 122.328 59.298C121.913 59.298 121.578 58.9949 121.53 58.588ZM8.84594 51.4799C8.42313 51.3762 8.15987 50.9374 8.26358 50.5146C8.37527 50.0838 8.80606 49.8206 9.22887 49.9323C9.65967 50.036 9.92293 50.4668 9.81125 50.8976C9.72349 51.2565 9.39641 51.5038 9.03741 51.5038C8.96561 51.5038 8.90179 51.4959 8.84594 51.4799ZM120.15 50.7779C120.039 50.3551 120.302 49.9163 120.733 49.8126C121.155 49.7009 121.586 49.9642 121.698 50.395C121.802 50.8178 121.546 51.2486 121.116 51.3603C121.052 51.3762 120.988 51.3842 120.924 51.3842C120.565 51.3842 120.238 51.1449 120.15 50.7779ZM11.2233 43.7974C10.8164 43.6299 10.617 43.1672 10.7845 42.7524C10.952 42.3455 11.4148 42.1461 11.8296 42.3136C12.2365 42.4811 12.4279 42.9438 12.2684 43.3507C12.1407 43.6618 11.8376 43.8533 11.5264 43.8533C11.4227 43.8533 11.327 43.8373 11.2233 43.7974ZM117.685 43.247C117.518 42.8401 117.709 42.3694 118.124 42.2099C118.531 42.0423 118.994 42.2338 119.161 42.6487C119.329 43.0555 119.129 43.5182 118.722 43.6858C118.627 43.7256 118.523 43.7416 118.419 43.7416C118.108 43.7416 117.813 43.5581 117.685 43.247ZM14.6617 36.5218C14.2787 36.2984 14.1511 35.8118 14.3665 35.4289C14.5899 35.0459 15.0765 34.9183 15.4594 35.1417C15.8344 35.3571 15.97 35.8437 15.7466 36.2266C15.603 36.4819 15.3318 36.6255 15.0605 36.6255C14.9169 36.6255 14.7813 36.5936 14.6617 36.5218ZM114.191 36.1389C113.968 35.7559 114.095 35.2693 114.478 35.0459C114.861 34.8226 115.348 34.9502 115.571 35.3331C115.787 35.7161 115.659 36.2027 115.284 36.4261C115.156 36.4979 115.021 36.5298 114.885 36.5298C114.598 36.5298 114.335 36.3942 114.191 36.1389ZM19.0653 29.7966C18.7143 29.5254 18.6505 29.0228 18.9217 28.6718C19.193 28.3287 19.6956 28.2649 20.0466 28.5362C20.3896 28.8074 20.4534 29.31 20.1822 29.653C20.0227 29.8605 19.7913 29.9642 19.552 29.9642C19.3844 29.9642 19.2169 29.9083 19.0653 29.7966ZM109.739 29.5733C109.468 29.2302 109.532 28.7276 109.875 28.4564C110.218 28.1851 110.721 28.241 110.992 28.592C110.992 28.592 110.992 28.592 111 28.592C111.271 28.9351 111.207 29.4376 110.856 29.7089C110.713 29.8285 110.545 29.8844 110.37 29.8844C110.13 29.8844 109.899 29.7807 109.739 29.5733ZM24.3705 23.7416C24.0594 23.4305 24.0673 22.9199 24.3864 22.6167C24.7055 22.3056 25.2081 22.3216 25.5113 22.6327C25.8224 22.9518 25.8144 23.4544 25.4953 23.7655C25.3438 23.9091 25.1443 23.9889 24.9369 23.9889C24.7215 23.9889 24.5221 23.9091 24.3705 23.7416ZM104.426 23.6937C104.107 23.3906 104.099 22.88 104.402 22.5609C104.706 22.2498 105.216 22.2338 105.535 22.5449C105.846 22.8481 105.854 23.3507 105.551 23.6698C105.4 23.8373 105.184 23.9171 104.977 23.9171C104.777 23.9171 104.578 23.8453 104.426 23.6937ZM30.4415 18.4843C30.1782 18.1253 30.258 17.6307 30.609 17.3674C30.968 17.1122 31.4706 17.184 31.7259 17.5429C31.9891 17.9019 31.9094 18.3966 31.5583 18.6598H31.5504C31.4068 18.7635 31.2472 18.8114 31.0797 18.8114C30.8404 18.8114 30.601 18.6997 30.4415 18.4843ZM98.3473 18.596C97.9883 18.3407 97.9165 17.8381 98.1718 17.4871C98.4271 17.1281 98.9297 17.0483 99.2807 17.3036C99.6397 17.5669 99.7195 18.0615 99.4642 18.4205C99.3047 18.6359 99.0653 18.7476 98.818 18.7476C98.6425 18.7476 98.483 18.6997 98.3473 18.596ZM37.1826 14.1205C36.9752 13.7296 37.1268 13.243 37.5097 13.0356C37.9006 12.8282 38.3872 12.9717 38.5946 13.3627C38.8021 13.7536 38.6505 14.2322 38.2676 14.4476C38.1479 14.5035 38.0203 14.5354 37.8926 14.5354C37.6134 14.5354 37.3342 14.3838 37.1826 14.1205ZM91.6222 14.3918C91.2313 14.1844 91.0877 13.7057 91.2951 13.3148C91.5025 12.9239 91.9812 12.7803 92.3721 12.9877C92.763 13.1871 92.9066 13.6738 92.6992 14.0647C92.5635 14.3359 92.2843 14.4875 91.9971 14.4875C91.8615 14.4875 91.7339 14.4556 91.6222 14.3918ZM44.4822 10.73C44.3306 10.3152 44.538 9.86046 44.9528 9.70888C45.3677 9.5573 45.8224 9.77271 45.974 10.1796C46.1256 10.5944 45.9181 11.0571 45.5033 11.2087C45.4156 11.2406 45.3198 11.2565 45.2321 11.2565C44.897 11.2565 44.5939 11.0571 44.4822 10.73ZM84.3784 11.1608C83.9636 11.0172 83.7482 10.5545 83.8998 10.1397C84.0514 9.72484 84.5061 9.51743 84.9209 9.669C85.3358 9.8126 85.5512 10.2753 85.3996 10.6901C85.2799 11.0092 84.9768 11.2167 84.6497 11.2167C84.554 11.2167 84.4662 11.2007 84.3784 11.1608ZM52.1726 8.40054C52.0849 7.96177 52.3561 7.53897 52.7869 7.45121C53.2177 7.35548 53.6405 7.63469 53.7283 8.06548C53.824 8.49628 53.5528 8.9191 53.122 9.00685C53.0661 9.02281 53.0103 9.03079 52.9465 9.03079C52.5715 9.03079 52.2444 8.76752 52.1726 8.40054ZM76.7438 8.98292C76.313 8.89517 76.0338 8.47235 76.1295 8.04155C76.2173 7.61076 76.6401 7.33154 77.0709 7.42727C77.5017 7.51502 77.7809 7.93784 77.6852 8.36864C77.6054 8.74359 77.2783 8.99887 76.9114 8.99887C76.8635 8.99887 76.8077 8.99888 76.7438 8.98292ZM60.1184 7.16402C60.0865 6.72524 60.4215 6.34231 60.8603 6.3104C61.2991 6.27849 61.674 6.61356 61.7059 7.05233C61.7378 7.4911 61.4108 7.87402 60.972 7.90593C60.9481 7.90593 60.9321 7.90593 60.9082 7.90593C60.4854 7.90593 60.1503 7.58683 60.1184 7.16402ZM68.8938 7.89796C68.4471 7.86605 68.12 7.48311 68.1439 7.04434C68.1758 6.60557 68.5587 6.27052 68.9975 6.30243C69.4363 6.33434 69.7714 6.71726 69.7394 7.15603C69.7075 7.57087 69.3565 7.89796 68.9417 7.89796C68.9257 7.89796 68.9177 7.89796 68.8938 7.89796Z"
              fill="url(#paint1_linear_116_19)"/>
        <path class="counter-clockwise" opacity="0.4"
              d="M64.195 116.107C64.195 115.66 64.5541 115.309 65.0008 115.309C65.0168 115.309 65.0407 115.309 65.0646 115.309C65.0886 115.309 65.1205 115.309 65.1524 115.309C65.5911 115.301 65.9501 115.66 65.9501 116.099C65.9501 116.538 65.5991 116.897 65.1524 116.897C65.1284 116.897 65.1045 116.897 65.0726 116.897C65.0487 116.897 65.0247 116.897 65.0008 116.897C65.0008 116.897 65.0008 116.897 65.0008 116.905C64.5461 116.905 64.195 116.546 64.195 116.107ZM57.0231 116.29C56.5844 116.226 56.2892 115.82 56.353 115.381C56.4248 114.95 56.8237 114.647 57.2625 114.719C57.6933 114.783 57.9964 115.189 57.9326 115.628C57.8688 116.019 57.5257 116.306 57.1428 116.306C57.0949 116.306 57.063 116.298 57.0231 116.29ZM72.2126 115.604C72.1488 115.165 72.444 114.759 72.8827 114.695C73.3135 114.623 73.7284 114.918 73.7922 115.357C73.864 115.796 73.5608 116.203 73.13 116.274C73.0902 116.274 73.0423 116.282 73.0024 116.282C72.6195 116.282 72.2764 115.995 72.2126 115.604ZM49.221 114.471C48.7982 114.336 48.5668 113.889 48.7024 113.474C48.8381 113.051 49.2848 112.82 49.7076 112.956C50.1225 113.083 50.3538 113.53 50.2262 113.953C50.1145 114.296 49.8034 114.511 49.4683 114.511C49.3885 114.511 49.3087 114.495 49.221 114.471ZM79.9031 113.905C79.7674 113.49 79.9988 113.035 80.4216 112.908C80.8365 112.772 81.2832 113.004 81.4188 113.418C81.5545 113.841 81.3231 114.288 80.9083 114.424C80.8205 114.447 80.7407 114.463 80.6609 114.463C80.3339 114.463 80.0148 114.248 79.9031 113.905ZM41.8018 111.472C41.4029 111.272 41.2433 110.794 41.4428 110.403C41.6342 110.012 42.1129 109.844 42.5118 110.044C42.9027 110.243 43.0702 110.714 42.8708 111.113C42.7351 111.392 42.4479 111.56 42.1528 111.56C42.0411 111.56 41.9214 111.528 41.8018 111.472ZM87.2425 111.049C87.0431 110.65 87.2026 110.171 87.6015 109.98C87.9924 109.781 88.4711 109.94 88.6705 110.331C88.87 110.73 88.7024 111.209 88.3115 111.408C88.1998 111.464 88.0802 111.488 87.9605 111.488C87.6733 111.488 87.3941 111.328 87.2425 111.049ZM34.925 107.371C34.566 107.124 34.4862 106.621 34.7335 106.262C34.9888 105.903 35.4834 105.816 35.8504 106.071C36.2094 106.326 36.2892 106.821 36.0419 107.18C35.8823 107.403 35.635 107.523 35.3877 107.523C35.2282 107.523 35.0766 107.475 34.925 107.371ZM94.0554 107.1C93.8002 106.741 93.8879 106.238 94.2469 105.983C94.6059 105.728 95.1005 105.816 95.3558 106.175C95.6111 106.534 95.5313 107.036 95.1723 107.292C95.0287 107.387 94.8692 107.435 94.7096 107.435C94.4543 107.435 94.223 107.315 94.0554 107.1ZM28.7663 102.282C28.4471 101.97 28.4392 101.468 28.7423 101.157C29.0534 100.838 29.556 100.83 29.8751 101.133C30.1863 101.436 30.2022 101.938 29.8911 102.258C29.7395 102.417 29.5321 102.505 29.3167 102.505C29.1093 102.505 28.9099 102.433 28.7663 102.282ZM100.206 102.162C99.8951 101.843 99.9031 101.34 100.222 101.029C100.541 100.726 101.044 100.734 101.347 101.053C101.658 101.364 101.65 101.875 101.331 102.178C101.179 102.329 100.98 102.401 100.781 102.401C100.565 102.401 100.358 102.321 100.206 102.162ZM23.4452 96.3142C23.1739 95.9632 23.2377 95.4606 23.5888 95.1974C23.9398 94.9261 24.4424 94.9899 24.7136 95.341H24.7056C24.9769 95.692 24.913 96.1946 24.562 96.4578C24.4105 96.5695 24.2429 96.6254 24.0754 96.6254C23.8361 96.6254 23.5888 96.5217 23.4452 96.3142ZM105.527 96.3462C105.168 96.0829 105.104 95.5803 105.368 95.2293C105.639 94.8783 106.142 94.8144 106.493 95.0777C106.836 95.341 106.907 95.8436 106.644 96.1946C106.485 96.402 106.245 96.5137 106.006 96.5137C105.83 96.5137 105.663 96.4578 105.527 96.3462ZM19.0734 89.605C19.0734 89.605 19.0734 89.605 19.0734 89.613C18.858 89.2221 19.0016 88.7355 19.3925 88.5281C19.7754 88.3127 20.2621 88.4563 20.4775 88.8472C20.6849 89.2301 20.5413 89.7167 20.1584 89.9321C20.0387 89.9959 19.9031 90.0278 19.7754 90.0278C19.4962 90.0278 19.225 89.8763 19.0734 89.605ZM109.899 89.7965C109.516 89.5891 109.373 89.1024 109.58 88.7195V88.7115C109.787 88.3286 110.274 88.185 110.665 88.3924C111.048 88.6078 111.191 89.0865 110.984 89.4774C110.84 89.7407 110.569 89.8922 110.282 89.8922C110.146 89.8922 110.019 89.8603 109.899 89.7965ZM15.7946 82.3214C15.651 81.9066 15.8584 81.4519 16.2732 81.3003C16.6881 81.1487 17.1508 81.3641 17.3024 81.7789C17.446 82.1938 17.2306 82.6485 16.8157 82.8001C16.728 82.832 16.6402 82.8479 16.5445 82.8479C16.2094 82.8479 15.9063 82.6485 15.7946 82.3214ZM113.234 82.6485C112.819 82.5049 112.596 82.0422 112.747 81.6274C112.899 81.2205 113.353 81.0051 113.768 81.1487C114.183 81.3003 114.398 81.755 114.247 82.1699C114.135 82.4969 113.824 82.6964 113.497 82.6964C113.401 82.6964 113.321 82.6804 113.234 82.6485ZM13.6725 74.607C13.5848 74.1762 13.864 73.7534 14.3028 73.6736C14.7335 73.5938 15.1484 73.8731 15.2361 74.3039C15.3159 74.7347 15.0367 75.1575 14.6059 75.2373C14.5501 75.2452 14.5022 75.2532 14.4543 75.2532C14.0794 75.2532 13.7443 74.99 13.6725 74.607ZM115.42 75.0777C114.989 74.9979 114.702 74.5751 114.789 74.1443C114.869 73.7135 115.284 73.4263 115.723 73.5061C116.154 73.5939 116.441 74.0087 116.353 74.4475C116.281 74.8224 115.946 75.0936 115.571 75.0936C115.523 75.0936 115.467 75.0857 115.42 75.0777ZM12.7551 66.6613C12.7312 66.2225 13.0742 65.8475 13.5209 65.8316C13.9597 65.8156 14.3267 66.1587 14.3506 66.5974H14.3426C14.3586 67.0362 14.0235 67.4112 13.5768 67.4271C13.5688 67.4271 13.5608 67.4271 13.5529 67.4271C13.1141 67.4271 12.771 67.0921 12.7551 66.6613ZM116.425 67.2596C115.978 67.2436 115.635 66.8767 115.651 66.4379C115.667 65.9991 116.034 65.6481 116.481 65.6641C116.919 65.68 117.262 66.055 117.246 66.4937C117.231 66.9245 116.88 67.2596 116.449 67.2596C116.433 67.2596 116.425 67.2596 116.425 67.2596ZM13.7523 59.5532C13.3135 59.4973 12.9944 59.1064 13.0503 58.6676C13.0981 58.2289 13.489 57.9178 13.9278 57.9656C14.3666 58.0135 14.6857 58.4124 14.6378 58.8511C14.5899 59.258 14.2389 59.5532 13.84 59.5532C13.8081 59.5532 13.7842 59.5532 13.7523 59.5532ZM115.332 58.6916C115.284 58.2528 115.595 57.8539 116.034 57.8061C116.473 57.7502 116.864 58.0693 116.919 58.5081C116.967 58.9389 116.656 59.3378 116.217 59.3857C116.185 59.3936 116.154 59.3936 116.122 59.3936C115.731 59.3936 115.388 59.0905 115.332 58.6916ZM15.1085 51.7909C14.6857 51.6792 14.4384 51.2404 14.5501 50.8097C14.6697 50.3868 15.1085 50.1395 15.5313 50.2512C15.9541 50.3709 16.2094 50.8097 16.0897 51.2325C15.994 51.5915 15.6749 51.8228 15.3239 51.8228C15.2601 51.8228 15.1803 51.8148 15.1085 51.7909ZM113.84 51.0809C113.72 50.6501 113.968 50.2113 114.398 50.0996C114.821 49.98 115.26 50.2273 115.38 50.6501C115.499 51.0729 115.244 51.5117 114.821 51.6314C114.749 51.6553 114.678 51.6633 114.606 51.6633C114.263 51.6633 113.936 51.4319 113.84 51.0809ZM17.6693 44.3318C17.2625 44.1563 17.087 43.6856 17.2704 43.2787C17.446 42.8799 17.9166 42.6964 18.3235 42.8799C18.7224 43.0633 18.8979 43.534 18.7224 43.9329C18.5868 44.2281 18.2996 44.4036 17.9964 44.4036C17.8767 44.4036 17.773 44.3797 17.6693 44.3318ZM111.207 43.7893C111.024 43.3904 111.199 42.9118 111.606 42.7363C112.005 42.5528 112.476 42.7283 112.659 43.1272C112.843 43.534 112.659 44.0047 112.26 44.1882C112.157 44.2361 112.045 44.26 111.933 44.26C111.63 44.26 111.343 44.0845 111.207 43.7893ZM21.3311 37.3593C20.9561 37.12 20.8524 36.6254 21.0917 36.2504C21.3311 35.8835 21.8257 35.7718 22.2006 36.0191C22.5676 36.2584 22.6713 36.753 22.432 37.12C22.2804 37.3593 22.0251 37.487 21.7619 37.487C21.6103 37.487 21.4587 37.4471 21.3311 37.3593ZM107.474 36.9924C107.235 36.6254 107.338 36.1308 107.713 35.8914C108.08 35.6441 108.575 35.7478 108.814 36.1228C109.053 36.4897 108.95 36.9844 108.583 37.2237C108.447 37.3115 108.296 37.3513 108.144 37.3513C107.881 37.3513 107.625 37.2317 107.474 36.9924ZM26.006 31.0171C25.6789 30.7219 25.655 30.2193 25.9422 29.8922C26.2373 29.5572 26.7399 29.5332 27.067 29.8204C27.3941 30.1156 27.426 30.6182 27.1388 30.9533C26.9793 31.1288 26.7559 31.2165 26.5405 31.2165C26.349 31.2165 26.1496 31.1527 26.006 31.0171ZM102.759 30.8416C102.464 30.5145 102.488 30.0039 102.823 29.7167C103.15 29.4215 103.653 29.4455 103.948 29.7726C104.243 30.0996 104.211 30.6102 103.884 30.9054C103.732 31.041 103.541 31.1048 103.349 31.1048C103.134 31.1048 102.919 31.0171 102.759 30.8416ZM31.5903 25.4566C31.3111 25.1216 31.359 24.619 31.702 24.3318C32.0371 24.0526 32.5397 24.1004 32.8269 24.4435C33.1061 24.7785 33.0582 25.2811 32.7152 25.5683C32.5716 25.688 32.3881 25.7438 32.2126 25.7438C31.9813 25.7438 31.7499 25.6481 31.5903 25.4566ZM97.1508 25.4726C96.8077 25.1934 96.7599 24.6908 97.0471 24.3478C97.3183 24.0047 97.8289 23.9568 98.1639 24.2361C98.507 24.5153 98.5548 25.0179 98.2756 25.3609C98.1161 25.5524 97.8847 25.6481 97.6614 25.6481C97.4858 25.6481 97.3103 25.5923 97.1508 25.4726ZM37.9485 20.8137C37.7252 20.4307 37.8448 19.9441 38.2198 19.7207C38.6027 19.4894 39.0893 19.617 39.3127 19.9919C39.5441 20.3669 39.4164 20.8615 39.0415 21.0849C38.9138 21.1647 38.7702 21.2046 38.6346 21.2046C38.3714 21.2046 38.1081 21.061 37.9485 20.8137ZM90.8006 21.0051V21.0131C90.4256 20.7817 90.298 20.2951 90.5213 19.9122C90.7527 19.5372 91.2393 19.4096 91.6223 19.6409C91.9972 19.8643 92.1249 20.3509 91.9015 20.7339C91.7499 20.9812 91.4866 21.1248 91.2074 21.1248C91.0718 21.1248 90.9362 21.0849 90.8006 21.0051ZM44.945 17.1918C44.7774 16.7849 44.9769 16.3142 45.3837 16.1547C45.7906 15.9872 46.2613 16.1786 46.4208 16.5855C46.5883 17.0003 46.3969 17.463 45.9821 17.6306C45.8863 17.6705 45.7826 17.6864 45.6869 17.6864C45.3598 17.6864 45.0646 17.5029 44.945 17.1918ZM83.852 17.5667C83.4451 17.4072 83.2457 16.9365 83.4053 16.5296C83.5728 16.1228 84.0355 15.9233 84.4424 16.0909C84.8572 16.2504 85.0487 16.7211 84.8891 17.128C84.7615 17.4391 84.4663 17.6306 84.1472 17.6306C84.0515 17.6306 83.9477 17.6066 83.852 17.5667ZM52.4121 14.6788C52.3163 14.248 52.5796 13.8252 53.0104 13.7215C53.4332 13.6178 53.864 13.8811 53.9677 14.3119C54.0714 14.7426 53.8002 15.1734 53.3773 15.2772C53.3135 15.2851 53.2497 15.2931 53.1859 15.2931C52.8269 15.2931 52.4998 15.0458 52.4121 14.6788ZM76.4567 15.2373C76.0259 15.1336 75.7627 14.7107 75.8584 14.2799C75.9621 13.8492 76.3849 13.5779 76.8157 13.6816C76.8157 13.6816 76.8157 13.6816 76.8237 13.6816C77.2465 13.7853 77.5178 14.2081 77.414 14.6389C77.3263 15.0059 76.9992 15.2612 76.6402 15.2612C76.5684 15.2612 76.5126 15.2532 76.4567 15.2373ZM60.1823 13.3466C60.1424 12.9078 60.4695 12.5249 60.9083 12.4929C61.347 12.461 61.7379 12.7881 61.7698 13.2269C61.8018 13.6657 61.4747 14.0486 61.0359 14.0805C61.012 14.0805 60.996 14.0885 60.9721 14.0885C60.5493 14.0885 60.2142 13.7694 60.1823 13.3466ZM68.7902 14.0725C68.3514 14.0406 68.0243 13.6577 68.0562 13.2109C68.0882 12.7722 68.4711 12.4451 68.9099 12.477C69.3486 12.5089 69.6757 12.8918 69.6438 13.3306C69.6119 13.7534 69.2609 14.0725 68.846 14.0725C68.8301 14.0725 68.8141 14.0725 68.7902 14.0725Z"
              fill="url(#paint2_linear_116_19)"/>
    </g>
    <defs>
        <linearGradient id="paint0_linear_115_21" x1="64.5844" y1="104.212" x2="64.4023" y2="104.212"
                        gradientUnits="userSpaceOnUse">
            <stop stop-color="#F8FDFC"/>
            <stop offset="0.447917" stop-color="#BAC1FF"/>
            <stop offset="0.989583" stop-color="white"/>
        </linearGradient>
        <linearGradient id="paint1_linear_115_21" x1="68.2763" y1="104.064" x2="67.5843" y2="104.064"
                        gradientUnits="userSpaceOnUse">
            <stop stop-color="#F8FDFC"/>
            <stop offset="0.447917" stop-color="#BAC1FF"/>
            <stop offset="0.989583" stop-color="white"/>
        </linearGradient>
        <linearGradient id="paint2_linear_115_21" x1="71.9375" y1="103.613" x2="70.7503" y2="103.613"
                        gradientUnits="userSpaceOnUse">
            <stop stop-color="#F8FDFC"/>
            <stop offset="0.447917" stop-color="#BAC1FF"/>
            <stop offset="0.989583" stop-color="white"/>
        </linearGradient>
        <linearGradient id="paint3_linear_115_21" x1="75.55" y1="102.867" x2="73.8603" y2="102.866"
                        gradientUnits="userSpaceOnUse">
            <stop stop-color="#F8FDFC"/>
            <stop offset="0.447917" stop-color="#BAC1FF"/>
            <stop offset="0.989583" stop-color="white"/>
        </linearGradient>
        <linearGradient id="paint4_linear_115_21" x1="121.242" y1="64.8449" x2="3.46924" y2="64.7113"
                        gradientUnits="userSpaceOnUse">
            <stop stop-color="#F8FDFC"/>
            <stop offset="0.447917" stop-color="#BAC1FF"/>
            <stop offset="0.989583" stop-color="white"/>
        </linearGradient>
        <linearGradient id="paint5_linear_115_21" x1="115.879" y1="64.89" x2="9.21383" y2="64.7687"
                        gradientUnits="userSpaceOnUse">
            <stop stop-color="#F8FDFC"/>
            <stop offset="0.447917" stop-color="#BAC1FF"/>
            <stop offset="0.989583" stop-color="white"/>
        </linearGradient>
        <linearGradient id="paint6_linear_115_21" x1="110.463" y1="64.8722" x2="15.0641" y2="64.7637"
                        gradientUnits="userSpaceOnUse">
            <stop stop-color="#F8FDFC"/>
            <stop offset="0.447917" stop-color="#BAC1FF"/>
            <stop offset="0.989583" stop-color="white"/>
        </linearGradient>
        <linearGradient id="paint7_linear_115_21" x1="104.713" y1="64.7788" x2="21.2316" y2="64.6839"
                        gradientUnits="userSpaceOnUse">
            <stop stop-color="#F8FDFC"/>
            <stop offset="0.447917" stop-color="#BAC1FF"/>
            <stop offset="0.989583" stop-color="white"/>
        </linearGradient>
        <linearGradient id="paint8_linear_115_21" x1="31.9609" y1="81.891" x2="16.7242" y2="81.8826"
                        gradientUnits="userSpaceOnUse">
            <stop stop-color="#F8FDFC"/>
            <stop offset="0.447917" stop-color="#BAC1FF"/>
            <stop offset="0.989583" stop-color="white"/>
        </linearGradient>
        <linearGradient id="paint9_linear_115_21" x1="94.8061" y1="105.49" x2="65.3597" y2="105.417"
                        gradientUnits="userSpaceOnUse">
            <stop stop-color="#F8FDFC"/>
            <stop offset="0.447917" stop-color="#BAC1FF"/>
            <stop offset="0.989583" stop-color="white"/>
        </linearGradient>
        <linearGradient id="paint10_linear_115_21" x1="112.443" y1="59.0263" x2="108.408" y2="59.0245"
                        gradientUnits="userSpaceOnUse">
            <stop stop-color="#F8FDFC"/>
            <stop offset="0.447917" stop-color="#BAC1FF"/>
            <stop offset="0.989583" stop-color="white"/>
        </linearGradient>
        <linearGradient id="paint11_linear_115_21" x1="97.8247" y1="25.3937" x2="73.025" y2="25.3473"
                        gradientUnits="userSpaceOnUse">
            <stop stop-color="#F8FDFC"/>
            <stop offset="0.447917" stop-color="#BAC1FF"/>
            <stop offset="0.989583" stop-color="white"/>
        </linearGradient>
        <linearGradient id="paint12_linear_115_21" x1="102.215" y1="64.7689" x2="23.9192" y2="64.6799"
                        gradientUnits="userSpaceOnUse">
            <stop stop-color="#F8FDFC"/>
            <stop offset="0.447917" stop-color="#BAC1FF"/>
            <stop offset="0.989583" stop-color="white"/>
        </linearGradient>
        <linearGradient id="paint13_linear_115_21" x1="93.4067" y1="64.7341" x2="33.3848" y2="64.6659"
                        gradientUnits="userSpaceOnUse">
            <stop stop-color="#F8FDFC"/>
            <stop offset="0.447917" stop-color="#BAC1FF"/>
            <stop offset="0.989583" stop-color="white"/>
        </linearGradient>
        <linearGradient id="paint14_linear_115_21" x1="62.6299" y1="80.162" x2="34.3487" y2="80.1298"
                        gradientUnits="userSpaceOnUse">
            <stop stop-color="#F8FDFC"/>
            <stop offset="0.447917" stop-color="#BAC1FF"/>
            <stop offset="0.989583" stop-color="white"/>
        </linearGradient>
        <linearGradient id="paint15_linear_115_21" x1="99.3166" y1="69.7659" x2="27.0369" y2="69.6718"
                        gradientUnits="userSpaceOnUse">
            <stop stop-color="#F8FDFC"/>
            <stop offset="0.447917" stop-color="#BAC1FF"/>
            <stop offset="0.989583" stop-color="white"/>
        </linearGradient>
        <linearGradient id="paint16_linear_115_21" x1="99.6675" y1="64.7588" x2="26.6594" y2="64.6759"
                        gradientUnits="userSpaceOnUse">
            <stop stop-color="#F8FDFC"/>
            <stop offset="0.447917" stop-color="#BAC1FF"/>
            <stop offset="0.989583" stop-color="white"/>
        </linearGradient>
        <linearGradient id="paint17_linear_115_21" x1="64.5844" y1="25.0413" x2="64.4023" y2="25.0413"
                        gradientUnits="userSpaceOnUse">
            <stop stop-color="#F8FDFC"/>
            <stop offset="0.447917" stop-color="#BAC1FF"/>
            <stop offset="0.989583" stop-color="white"/>
        </linearGradient>
        <linearGradient id="paint18_linear_115_21" x1="61.3759" y1="25.1968" x2="60.684" y2="25.1967"
                        gradientUnits="userSpaceOnUse">
            <stop stop-color="#F8FDFC"/>
            <stop offset="0.447917" stop-color="#BAC1FF"/>
            <stop offset="0.989583" stop-color="white"/>
        </linearGradient>
        <linearGradient id="paint19_linear_115_21" x1="58.1916" y1="25.6473" x2="56.9971" y2="25.6471"
                        gradientUnits="userSpaceOnUse">
            <stop stop-color="#F8FDFC"/>
            <stop offset="0.447917" stop-color="#BAC1FF"/>
            <stop offset="0.989583" stop-color="white"/>
        </linearGradient>
        <linearGradient id="paint20_linear_115_21" x1="55.0637" y1="26.393" x2="53.374" y2="26.3925"
                        gradientUnits="userSpaceOnUse">
            <stop stop-color="#F8FDFC"/>
            <stop offset="0.447917" stop-color="#BAC1FF"/>
            <stop offset="0.989583" stop-color="white"/>
        </linearGradient>
        <linearGradient id="paint21_linear_115_21" x1="52.0005" y1="27.43" x2="49.83" y2="27.429"
                        gradientUnits="userSpaceOnUse">
            <stop stop-color="#F8FDFC"/>
            <stop offset="0.447917" stop-color="#BAC1FF"/>
            <stop offset="0.989583" stop-color="white"/>
        </linearGradient>
        <linearGradient id="paint22_linear_115_21" x1="79.0766" y1="101.826" x2="76.9062" y2="101.825"
                        gradientUnits="userSpaceOnUse">
            <stop stop-color="#F8FDFC"/>
            <stop offset="0.447917" stop-color="#BAC1FF"/>
            <stop offset="0.989583" stop-color="white"/>
        </linearGradient>
        <linearGradient id="paint23_linear_115_21" x1="47.8494" y1="28.7156" x2="47.6843" y2="28.7926"
                        gradientUnits="userSpaceOnUse">
            <stop stop-color="#F8FDFC"/>
            <stop offset="0.447917" stop-color="#BAC1FF"/>
            <stop offset="0.989583" stop-color="white"/>
        </linearGradient>
        <linearGradient id="paint24_linear_115_21" x1="81.3186" y1="100.462" x2="81.1536" y2="100.538"
                        gradientUnits="userSpaceOnUse">
            <stop stop-color="#F8FDFC"/>
            <stop offset="0.447917" stop-color="#BAC1FF"/>
            <stop offset="0.989583" stop-color="white"/>
        </linearGradient>
        <linearGradient id="paint25_linear_115_21" x1="44.7776" y1="30.2932" x2="44.62" y2="30.3842"
                        gradientUnits="userSpaceOnUse">
            <stop stop-color="#F8FDFC"/>
            <stop offset="0.447917" stop-color="#BAC1FF"/>
            <stop offset="0.989583" stop-color="white"/>
        </linearGradient>
        <linearGradient id="paint26_linear_115_21" x1="84.3616" y1="98.8632" x2="84.2039" y2="98.9542"
                        gradientUnits="userSpaceOnUse">
            <stop stop-color="#F8FDFC"/>
            <stop offset="0.447917" stop-color="#BAC1FF"/>
            <stop offset="0.989583" stop-color="white"/>
        </linearGradient>
        <linearGradient id="paint27_linear_115_21" x1="41.873" y1="32.1606" x2="41.7238" y2="32.265"
                        gradientUnits="userSpaceOnUse">
            <stop stop-color="#F8FDFC"/>
            <stop offset="0.447917" stop-color="#BAC1FF"/>
            <stop offset="0.989583" stop-color="white"/>
        </linearGradient>
        <linearGradient id="paint28_linear_115_21" x1="88.8812" y1="97.0538" x2="85.3852" y2="97.0509"
                        gradientUnits="userSpaceOnUse">
            <stop stop-color="#F8FDFC"/>
            <stop offset="0.447917" stop-color="#BAC1FF"/>
            <stop offset="0.989583" stop-color="white"/>
        </linearGradient>
        <linearGradient id="paint29_linear_115_21" x1="40.9254" y1="34.3049" x2="37.0288" y2="34.3012"
                        gradientUnits="userSpaceOnUse">
            <stop stop-color="#F8FDFC"/>
            <stop offset="0.447917" stop-color="#BAC1FF"/>
            <stop offset="0.989583" stop-color="white"/>
        </linearGradient>
        <linearGradient id="paint30_linear_115_21" x1="91.8151" y1="94.9513" x2="87.9185" y2="94.9475"
                        gradientUnits="userSpaceOnUse">
            <stop stop-color="#F8FDFC"/>
            <stop offset="0.447917" stop-color="#BAC1FF"/>
            <stop offset="0.989583" stop-color="white"/>
        </linearGradient>
        <linearGradient id="paint31_linear_115_21" x1="27.8665" y1="61.1701" x2="22.0403" y2="61.1144"
                        gradientUnits="userSpaceOnUse">
            <stop stop-color="#F8FDFC"/>
            <stop offset="0.447917" stop-color="#BAC1FF"/>
            <stop offset="0.989583" stop-color="white"/>
        </linearGradient>
        <linearGradient id="paint32_linear_115_21" x1="106.734" y1="68.0707" x2="100.908" y2="68.0149"
                        gradientUnits="userSpaceOnUse">
            <stop stop-color="#F8FDFC"/>
            <stop offset="0.447917" stop-color="#BAC1FF"/>
            <stop offset="0.989583" stop-color="white"/>
        </linearGradient>
        <linearGradient id="paint33_linear_115_21" x1="27.7143" y1="64.6156" x2="21.8881" y2="64.4035"
                        gradientUnits="userSpaceOnUse">
            <stop stop-color="#F8FDFC"/>
            <stop offset="0.447917" stop-color="#BAC1FF"/>
            <stop offset="0.989583" stop-color="white"/>
        </linearGradient>
        <linearGradient id="paint34_linear_115_21" x1="106.885" y1="64.6157" x2="101.058" y2="64.4035"
                        gradientUnits="userSpaceOnUse">
            <stop stop-color="#F8FDFC"/>
            <stop offset="0.447917" stop-color="#BAC1FF"/>
            <stop offset="0.989583" stop-color="white"/>
        </linearGradient>
        <linearGradient id="paint35_linear_115_21" x1="95.1546" y1="64.7409" x2="31.5129" y2="64.6686"
                        gradientUnits="userSpaceOnUse">
            <stop stop-color="#F8FDFC"/>
            <stop offset="0.447917" stop-color="#BAC1FF"/>
            <stop offset="0.989583" stop-color="white"/>
        </linearGradient>
    </defs>
    <defs>
        <linearGradient id="paint0_linear_116_19" x1="121.742" y1="64.8449" x2="3.96924" y2="64.7113"
                        gradientUnits="userSpaceOnUse">
            <stop stop-color="#F8FDFC"/>
            <stop offset="0.447917" stop-color="#BAC1FF"/>
            <stop offset="0.989583" stop-color="white"/>
        </linearGradient>
        <linearGradient id="paint1_linear_116_19" x1="116.379" y1="64.8899" x2="9.71383" y2="64.7686"
                        gradientUnits="userSpaceOnUse">
            <stop stop-color="#F8FDFC"/>
            <stop offset="0.447917" stop-color="#BAC1FF"/>
            <stop offset="0.989583" stop-color="white"/>
        </linearGradient>
        <linearGradient id="paint2_linear_116_19" x1="110.963" y1="64.8722" x2="15.5641" y2="64.7637"
                        gradientUnits="userSpaceOnUse">
            <stop stop-color="#F8FDFC"/>
            <stop offset="0.447917" stop-color="#BAC1FF"/>
            <stop offset="0.989583" stop-color="white"/>
        </linearGradient>
    </defs>
</svg>
