<svg width="1374" height="786" viewBox="0 0 1374 786" fill="none" xmlns="http://www.w3.org/2000/svg">
<path d="M63.5 4.5H408.5L414 10H531M657 6.5H730M840 6.5H959L965 0.5H1310.5L1332 22V43M1324.5 4L1350 29.5V86.5L1344 92.5V174L1373 203V256.5L1367.5 262V346.5M1367.5 444V528.5L1373 534V586.5L1344 615.5V697L1351 704V757M1311 785.5H965.5L960 780H839.5M531 780H415L409.5 785.5H63.5L42 764V745.5M24 31.5V87.5L30 93.5V174.5L0.5 204V257L6 262.5V346.5M6 445.5V528L0.5 533.5V588L30 617.5V697L24 703V756.5L51.5 784" stroke="#515151"/>
</svg>
